<?xml version="1.0" encoding="utf-8"?>
<!-- Generator: Adobe Illustrator 27.5.0, SVG Export Plug-In . SVG Version: 6.00 Build 0)  -->
<svg version="1.1" id="Layer_1" xmlns="http://www.w3.org/2000/svg" xmlns:xlink="http://www.w3.org/1999/xlink" x="0px" y="0px"
	 viewBox="0 0 288 288" style="enable-background:new 0 0 288 288;" xml:space="preserve">
<g>
	<rect y="0" style="fill:#FFE1A0;" width="288" height="288"/>
	<g>
		<g>
			<g>
				<path style="fill:#002D3F;" d="M238.778,145.378c-0.595-1.241,0.29-2.501,0.475-2.79c0.021,0.012,0.042,0.017,0.063,0.03
					c3.087-0.149,3.639,0.656-0.592-3.542c1.476-0.956-0.029-1.109-0.145-1.636c-0.142-0.003-0.283-0.005-0.425-0.008
					c0.164-0.272,0.339-0.539,0.534-0.764l-0.116,0.122c0.367-0.907,0.734-1.814,1.042-2.575c-1.438-3.049-1.604-2.542,0.168-2.98
					c-0.316-1.059-0.632-2.116-0.92-3.079c-1.277-0.048-2.431,1.372-3.532,0.549c-0.613-0.04-1.225-0.079-1.826-0.118
					c1.349-1.456,1.353-1.437,2.516-0.696l-0.087-0.111c2.699-1.244,2.414-2.469,2.144-2.86c4.788-0.994,3.552-1.692,1.836-5.019
					c-1.091-0.5-1.099-0.39,0.218-0.279c0.232-0.323,0.464-0.646,0.695-0.969l-4.084,0.707c-0.264,0.144-0.396,0.191-0.355,0.061
					l-42.447,7.352c-0.836,1.049-0.733,0.966-1.189,0.824c0.115-0.322,0.193-0.518,0.251-0.662l-40.496,7.014
					c-0.173,0.714-0.27,1.113-0.397,1.637c-2.279-0.764-2.746-0.553-0.979-1.399l-5.937,1.028c0.706,0.42,1.139,0.677,1.561,0.928
					c0.41,0.284,1.495-1.539,1.447,0.176c-1.912-0.348-2.565-0.01-2.74,0.359c-0.115-0.307-0.331-0.765-0.677-1.393l-21.326,3.694
					c0.007,0.102,0.03,0.203,0.095,0.287c-0.252-0.031-0.504-0.062-0.757-0.093c0.038-0.041,0.058-0.059,0.091-0.095l-55.582,9.626
					c-0.341,0.329-0.515,0.569-0.346,0.425c-1.716,3.074-1.873,3.636-2.008,3.642c1.48,0.95,3.06-0.8,4.7-0.768
					c0.129,0.98,2.073,1.751-0.339,2.969c-2.186-3.103-0.147-0.393-2.085,0.866c-1.574,1.022-2.678,3.396-2.287,4.218
					c1.104,0.297,1.933,0.519,2.7,0.725c0,1.897,0.052,2.61,0.036,2.791c3.44,0.292-2.423,2.64,0.343,5.103
					c2.139-2.187,1.403-1.665,2.911-1.59l-0.024-0.025c0.373-0.006,0.572,0.05,0.676-0.018c0.32,2.587-0.111,2.075,2.427,2.797
					c-0.432,0.068-1.481,0.304-4.12,0.834c-0.296-2.425,0.214-2.237-2.395-0.425l0.223,0.202c0.324,0.7,0.648,1.401,0.973,2.101
					c-1.552,0.932-1.037,2.687-2.401,4.266l2.742-0.475c-0.086,0.278-0.197,0.611-0.484,1.495c-2.296-0.421-1.083,1.587-1.721,2.401
					c1.261-0.398,1.844-0.602,2.103-0.703c0.107,0.801,0.195,1.144,0.207,1.267c2.654,0.041,1.76,2.911,3.509,4.362
					c-3.233,0.219-3.984,0.149-0.415,1.676c-1.141,0.813-2.404,1.51-3.346,2.511c-2.069,2.198,0.874,1.724,0.666,2.018
					c1.203-1.169,0.708-0.84,0.767-0.154c1.018,0.101,0.854-0.034,0.896,0.581c-3.688,1.061-2.928,0.123-2.928,4.435
					c0.022,0.023,0.027,0.029,0.047,0.05c-0.023-0.018-0.029-0.023-0.055-0.043c-2.136,2.383-1.851,2.399-2.128,2.2
					c2.429,1.642-1.173,3.29-0.585,3.794c-0.141-0.257-2.404,0.024,1.975,2.712c-1.889,1.318-1.896,0.793,0.697,2.478
					c-1.124,0.567-2.484,0.549-2.927,2.593c1.297-0.471,2.292-0.956,3.297-1.167c1.257-0.263,2.172,1.382,1.311,2.532
					c-0.502-0.107-1.056-0.225-1.941-0.414c0.874,1.618-0.058,2.273-1.468,2.523c0.281,0.676,0.477,1.146,0.713,1.713
					c0.884-0.912-0.15-0.711,3.971-0.84c1.369,1.698,1.584,3.572,1.48,5.045l1.599-0.277c0.082-0.115,0.144-0.203,0.233-0.326
					c0.457,0.041,0.772,0.08,1.021,0.108l2.604-0.451c-0.64-0.312-0.925-0.467-1.12-0.443c0.007-0.008,0.011-0.014,0.017-0.022
					c2.133-1.966,1.84-2.222,1.8,0.344l155.812-26.985c0.008-0.139,0.017-0.279,0.026-0.419c0.245,0.085,0.339,0.204,0.358,0.352
					l1.911-0.331c0.331-2.068-3.671,0.068-4.413-1.3c1.162-0.449,2.16-0.834,2.891-1.117c0.166-3.199-0.333-2.821,2.301-1.231
					c4.671-8.723,4.448-7.713,3.603-8.416c0.001-0.001,0.001-0.001,0.001-0.003c-0.281-0.307-0.602-0.936-0.834-0.867
					c-1.349,0.401-1.259-0.512-1.561-1.528c4.72-0.222,4.13,0.106,3.671-1.099c-0.413-0.365-2.748,0.808-4.213-2.767
					c0.897-0.48,1.789-0.958,2.261-1.211c0.458-1.06,1.09-1.88,0.961-2.381c-0.613-2.377-3.477-0.996,0.613-2.758
					c-1.335-5.175-0.9-4.765-1.753-2.954c-3.424-1.865-3.27-1.283-1.272-2.601c0.285,0.063-0.69-3.007,3.166-1.063
					c-1.134-1.761-1.191-3.531-3.447-2.38c-0.233,0.119-0.925-0.289-0.961-0.384c-1.35,0.6-1.922,0.919-2.131,1.056
					c0.485-0.442,2.17-3.601-0.91-4.146c-0.501-0.089-0.689-1.129-1.14-1.946c0.722-0.319,1.221-0.539,1.322-0.584
					c3.935,3.184,3.339,2.803,3.996,2.928c-0.619,0.638-0.459,1.499-0.404,1.777c1.3-0.066,2.305-0.682,3.022-2.099
					c-1.224-0.016-2.571,0.04-1.833-1.861c-1.45,0.424-2.302-0.334-3.168-1.009c0.766-2.264,4.189-1.67,3.963-4.617
					c0.768,0.331,1.273,0.548,2.257,0.971C240.579,142.925,241.509,143.189,238.778,145.378z M72.634,156.893
					c-1.054,0.88-0.627,0.947-1.667,0.176C71.642,156.244,71.2,156.245,72.634,156.893z M69.717,160.154
					c2.997,0.73,2.52,0.574,3.087,0.93c-0.746-0.164-0.37-0.326-1.707,0.849C70.265,160.858,69.933,160.416,69.717,160.154z
					 M72.134,162.996c-0.174,0.657-0.349,1.313-0.523,1.97C71.12,164.181,70.33,163.501,72.134,162.996z M71.667,166.815
					c0.026-0.261-0.018-0.774-0.047-1.818C73.38,164.786,73.518,163.812,71.667,166.815z M72.308,153.533
					c-0.702-0.473-0.644-0.329-0.371-0.628c0.713,1.803,1.773-1.44,3.587-0.539c-0.421,0.488-1.306,1.587-1.866,2.22
					c1.384,1.076,1.33,1.24,0.564,2C73.531,156.31,71.924,155.433,72.308,153.533z M75.634,193.214
					c-2.474,1.513-2.107,1.573-1.9,0.084C73.578,193.051,73.241,193.31,75.634,193.214z M72.399,210.906
					c1.536-0.06,1.308-0.164,1.273,0.292C72.035,211.482,72.286,211.57,72.399,210.906z M74.086,211.856
					c1.581,2.495,1.557,1.936,0.684,2.654C73.38,211.911,73.404,212.36,74.086,211.856z M74.282,215.929
					c0.006-0.74,0.571-0.548,1.118-0.4C75.168,215.602,74.814,215.749,74.282,215.929z M75.02,217.781
					c0.442-1.329,0.716-1.945,0.702-2.177c0.15,0.026,0.281,0.018,0.394-0.021C76.035,216.329,76.969,217.336,75.02,217.781z
					 M76.342,215.418c0.776-1.039,1.663-1,2.59-0.449L76.342,215.418z M123.79,143.036c0.022-0.235,0.048-0.621,0.107-1.319
					C124.588,141.832,124.631,141.569,123.79,143.036z M128.551,144.112c-0.548-0.45-0.611-0.228,0.436-0.998
					c0.073-0.11,0.077-0.122,0.113-0.178C128.962,143.171,128.72,143.621,128.551,144.112z M126.797,139.384
					c0.991-0.083,1.599-0.133,2.304-0.192C128.353,140.022,127.717,140.591,126.797,139.384z M139.357,139.699
					c0.36,0.379,0.503,0.594,0.59,0.726C138.975,140.298,139.072,140.391,139.357,139.699z M139.956,153.911
					c-0.572-1.778-0.582-1.465-0.165-1.815C140.635,152.911,140.5,152.481,139.956,153.911z M141.964,146.912
					c-2.013-0.572-1.746-0.325-1.412-1.07C142.5,146.49,142.282,146.219,141.964,146.912z M142.325,141.27
					c1.072-0.593,0.769-0.536,1.178,0.182C142.949,141.573,143.197,141.651,142.325,141.27z M142.367,138.423
					c0.608-0.479,0.99-0.78,1.364-1.075C144.323,138.399,143.738,138.571,142.367,138.423z M144.75,166.137
					c-0.032-0.17-0.147-0.382-0.076-0.501c0.471-0.781,0.658-0.261,0.878,0.081C145.269,165.865,145.01,166.001,144.75,166.137z
					 M154.626,162.015c-0.296-1.191-0.435-1.752-0.66-2.656C156.076,159.873,156.007,159.211,154.626,162.015z M155.825,135.115
					c0.322-0.002,0.645-0.004,0.967-0.007C156.498,135.768,156.061,135.369,155.825,135.115z M157.784,159.91
					c-1.509-1.703-1.473-1.26-0.691-1.992C158.657,159.635,158.552,159.201,157.784,159.91z M166.467,149.359
					c0.908-1.687,0.629-1.466,1.244-1.163C166.825,149.849,167.072,149.58,166.467,149.359z M169.522,152.288
					c-0.281,0.326-0.854-0.824,0.301-0.569C169.728,151.914,169.658,152.129,169.522,152.288z M169.04,149.234
					c0.897-0.651,0.625-0.602,1.049-0.104C169.245,149.983,169.497,149.926,169.04,149.234z M179.898,150.326
					c1.179-0.358,0.856-0.352,1.137,0.121C179.951,150.897,180.266,150.904,179.898,150.326z M182.05,138.941
					c0.461-1.309,0.269-1.119,0.763-1.077C182.618,139.152,182.806,138.936,182.05,138.941z M183.19,140.917
					c0.085-0.178,0.186-0.467,0.434-1.104C184.22,140.115,184.292,139.93,183.19,140.917z M189.105,148.673l-0.002,0.001
					c0.22-0.155,0.488-0.401,0.83-0.776C190.227,148.347,190.382,148.169,189.105,148.673z M190.138,147.067
					c-0.857-1.725-0.885-1.33-0.053-1.851C191.094,146.777,191.145,146.363,190.138,147.067z M237.478,171.469
					c-0.888-0.517-0.948-0.312,0.385-1.163C237.747,170.644,237.618,171.028,237.478,171.469z M237.936,170.094
					c-0.413-0.637-0.826-1.274-1.242-1.915C238.71,167.967,238.66,168.001,237.936,170.094z M233.768,123.54
					c0.586,0.106,1.476-0.251,3.006-2.566c0.33,1.495-0.353,1.571-1.121,1.567C233.437,124.847,233.8,125.505,233.768,123.54z
					 M233.678,123.516c-0.427,0.085-0.854,0.17-1.28,0.255C232.778,122.66,233.036,123.339,233.678,123.516z M231.576,121.318
					c-1.996,1.021-1.605,0.992-1.856,0.304C231.674,120.6,231.305,120.577,231.576,121.318z M193.004,134.124
					c0.686-0.849,0.324-0.776,1.39-0.279C193.54,134.617,193.883,134.652,193.004,134.124z M197.276,126.674
					c0.721,1.82,0.818,2.216,1.065,2.454C197.274,128.679,196.691,128.944,197.276,126.674z M206.373,128.181
					c-0.115-0.5-0.23-1-0.35-1.524C207.241,126.824,207.084,127.413,206.373,128.181z M210.609,136.055
					c-0.319-0.78,0.269-0.529,0.867-0.562C211.313,135.614,211.109,135.736,210.609,136.055z M211.783,125.375
					c0.581,0.19,1.066-0.203,1.12,0.643C210.466,127.082,210.652,127.377,211.783,125.375z M228.628,124.27
					c0.288-0.033,0.55-0.063,0.812-0.093c-1.071-0.807,0.243-0.972,1.086-1.862c0.176,0.288,0.285,0.164-0.589,0.548
					c0.438,0.519,0.759,0.882,0.988,1.144c0.465-0.053,0.912-0.105,1.35-0.155C231.291,125.375,230.234,126.085,228.628,124.27z
					 M235.789,155.288c-0.825,1.928-0.79,1.885-2.02,0.899c-0.397-0.318-1.465,0.223-1.26-0.911
					c-0.15-0.051-0.244-0.091-0.332-0.128C232.719,155.113,233.761,155.115,235.789,155.288z M239.218,142.571
					c-0.195,0.166-0.826,0.753-2.335,1.96c-0.109-0.523-0.42-1.052-0.246-1.344C237.396,141.912,238.321,142.061,239.218,142.571z
					 M237.052,130.448c-0.593,0.027-0.84-0.008-1.03,0.077C236.963,129.833,236.754,129.828,237.052,130.448z M235.896,130.603
					c-0.198,0.171-0.399,0.553-1.004,1.436C234.26,131.365,234.078,131.661,235.896,130.603z M234.799,146.76
					c0.881-1.572-0.224-0.966,3.894-1.273C237.094,148.119,237.871,147.766,234.799,146.76z"/>
				<path style="fill:#002D3F;" d="M68.748,186.969c-2.122,0.898-2.121,0.898-2.763-1.109c-0.052-0.164-0.106-0.466-0.181-0.46
					c-3.033,0.25-1.489-2.06-1.613-3.468c4.917,4.434,4.095,3.406,4.09,4.359C68,186.076,68.533,186.673,68.748,186.969z"/>
				<path style="fill:#002D3F;" d="M66.206,192.596c-0.265,0.892-0.531,1.784-1,3.358c-0.481-1.083-1.055-1.779-0.873-2.064
					c2.137-3.346-0.623-8.435,2.505-2.847C68.637,189.714,65.503,193.396,66.206,192.596z"/>
				<path style="fill:#002D3F;" d="M239.808,131.326c0.944-0.393,1.889-0.786,2.833-1.178c-0.208-0.237-0.183,2.07-1.398,2.534
					C239.907,133.192,239.808,130.555,239.808,131.326z"/>
				<path style="fill:#002D3F;" d="M64.83,152.709c0,0.85,0,1.7,0,2.511c-1.292,0.491-1.8,0.129-1.351-0.928
					C63.852,153.413,65.121,152.916,64.83,152.709z"/>
				<path style="fill:#002D3F;" d="M67.715,170.45c-1.987,2.647-1.179,2.427-3.678,0.631
					C68.016,170.122,67.418,170.181,67.715,170.45z"/>
				<path style="fill:#002D3F;" d="M240.839,134.643c1.682-0.765,1.883-0.002,1.899,1.124
					C241.174,136.538,241.439,135.203,240.839,134.643z"/>
				<path style="fill:#002D3F;" d="M65.014,210.76c-0.221,0.654-0.441,1.307-0.661,1.96c-0.262-0.066-0.761-0.138-0.75-0.197
					C64.037,210.27,64.067,210.657,65.014,210.76z"/>
				<path style="fill:#002D3F;" d="M64.407,177.761c1.059,1.994,1.018,1.556,0.357,2.07
					C64.33,179.292,63.358,178.301,64.407,177.761z"/>
				<path style="fill:#002D3F;" d="M60.153,165.066c0.231-0.932,0.364-1.469,0.558-2.256
					C61.263,163.835,61.263,163.835,60.153,165.066z"/>
				<path style="fill:#002D3F;" d="M60.912,201.492c-0.679,1.612-0.444,1.381-1.033,1.189
					C60.63,201.126,60.387,201.332,60.912,201.492z"/>
				<path style="fill:#002D3F;" d="M241.962,137.521c-0.995,1.323-0.733,1.164-1.179,0.93
					C241.613,136.962,241.348,137.129,241.962,137.521z"/>
				<path style="fill:#002D3F;" d="M68.971,183.619c0.785-1.528,0.548-1.261,1.145-1.107
					C69.219,184.044,69.472,183.831,68.971,183.619z"/>
				<path style="fill:#002D3F;" d="M64.411,200.794c0.117,0.516,0.235,1.033,0.352,1.55l0.09-0.095
					C62.984,202.064,64.761,200.733,64.411,200.794z"/>
				<path style="fill:#002D3F;" d="M238.571,136.79c1.051,0.053,1.118-0.132-0.015,0.566c0.275,0.181,0.13,0.157,0.132-0.688
					L238.571,136.79z"/>
				<path style="fill:#002D3F;" d="M69.597,191.298l-0.051,0.071c0.256-0.04,0.512-0.079,0.768-0.119
					C70.036,191.012,70.277,192.284,69.597,191.298z"/>
				<path style="fill:#002D3F;" d="M238.687,154.013c-0.004,0.936,0.25,0.717-1.265,0.875
					C237.844,154.597,238.265,154.305,238.687,154.013z"/>
			</g>
			<g>
				<path style="fill:#F05200;" d="M222.66,81.478c1.357-0.946,1.361-0.57-0.501-1.779c0.807-0.407,1.784-0.394,2.102-1.863
					c-0.931,0.338-1.646,0.687-2.368,0.838c-0.903,0.189-1.559-0.992-0.942-1.818c0.361,0.077,0.758,0.162,1.394,0.297
					c-0.628-1.162,0.041-1.632,1.055-1.812c-0.202-0.485-0.342-0.823-0.512-1.23c-0.635,0.655,0.108,0.51-2.852,0.604
					c-0.983-1.219-1.137-2.565-1.063-3.623l-1.148,0.199c-0.059,0.083-0.104,0.145-0.167,0.234
					c-0.328-0.029-0.555-0.058-0.734-0.078l-1.87,0.324c0.459,0.224,0.664,0.335,0.805,0.318c-0.005,0.006-0.008,0.01-0.012,0.016
					c-1.531,1.412-1.321,1.595-1.293-0.247L42.6,101.638c-0.006,0.1-0.012,0.2-0.018,0.301c-0.176-0.061-0.244-0.147-0.257-0.253
					l-1.373,0.238c-0.238,1.485,2.636-0.049,3.169,0.934c-0.834,0.322-1.551,0.599-2.076,0.802
					c-0.119,2.297,0.239,2.026-1.653,0.884c-3.355,6.264-3.194,5.539-2.587,6.044c0,0.001,0,0.001-0.001,0.002
					c0.201,0.22,0.432,0.673,0.599,0.623c0.969-0.288,0.904,0.368,1.121,1.097c-3.39,0.16-2.966-0.076-2.636,0.79
					c0.296,0.262,1.973-0.58,3.026,1.987c-0.644,0.345-1.285,0.688-1.624,0.869c-0.329,0.761-0.783,1.351-0.69,1.71
					c0.44,1.707,2.497,0.715-0.44,1.981c0.959,3.717,0.646,3.422,1.259,2.122c2.459,1.34,2.348,0.921,0.914,1.868
					c-0.205-0.046,0.495,2.159-2.274,0.764c0.815,1.265,0.855,2.536,2.475,1.709c0.197-0.101,0.856,0.326,0.66,0.29
					c0.993-0.44,1.409-0.673,1.561-0.772c-0.348,0.317-1.558,2.586,0.653,2.978c0.36,0.064,0.495,0.811,0.819,1.397
					c-0.518,0.229-0.877,0.387-0.949,0.419c-2.826-2.286-2.398-2.013-2.87-2.103c0.444-0.458,0.33-1.076,0.29-1.276
					c-0.934,0.047-1.655,0.49-2.17,1.507c0.879,0.011,1.846-0.029,1.316,1.336c1.041-0.304,1.653,0.24,2.275,0.725
					c-0.55,1.626-3.009,1.199-2.846,3.316c-0.552-0.238-0.914-0.394-1.621-0.698c1.681,3.19,1.013,3,2.974,1.429
					c0.427,0.891-0.208,1.796-0.341,2.003c-0.015-0.009-0.03-0.012-0.045-0.021c-2.216,0.107-2.613-0.471,0.426,2.544
					c-1.06,0.686,0.021,0.796,0.104,1.175c0.102,0.002,0.203,0.004,0.305,0.006c-0.118,0.195-0.244,0.387-0.383,0.549l0.083-0.088
					c-0.263,0.651-0.527,1.303-0.748,1.849c1.033,2.189,1.152,1.825-0.12,2.14c0.227,0.76,0.454,1.52,0.661,2.211
					c0.917,0.034,1.746-0.985,2.537-0.395c0.44,0.029,0.88,0.057,1.312,0.085c-0.968,1.046-0.971,1.032-1.807,0.5l0.062,0.079
					c-1.938,0.893-1.734,1.773-1.539,2.054c-3.439,0.714-2.551,1.215-1.318,3.604c0.783,0.359,0.789,0.28-0.156,0.2
					c-0.166,0.232-0.333,0.464-0.499,0.696l2.932-0.508c0.19-0.104,0.285-0.137,0.255-0.044l90.543-15.681
					c0.601-0.754,0.526-0.694,0.854-0.592c-0.083,0.232-0.139,0.372-0.18,0.475l29.081-5.037c0.124-0.513,0.194-0.799,0.285-1.176
					c1.637,0.549,1.972,0.397,0.703,1.005l4.264-0.738c-0.507-0.301-0.818-0.486-1.121-0.667c-0.295-0.204-1.074,1.105-1.039-0.126
					c1.373,0.25,1.842,0.007,1.968-0.258c0.082,0.22,0.238,0.549,0.486,1l15.315-2.652c-0.005-0.073-0.022-0.146-0.068-0.206
					c0.181,0.022,0.362,0.045,0.543,0.067c-0.027,0.03-0.041,0.042-0.066,0.068l39.915-6.913c0.245-0.236,0.37-0.409,0.249-0.305
					c1.232-2.208,1.345-2.611,1.442-2.615c-1.063-0.682-2.197,0.574-3.375,0.551c-0.092-0.704-1.489-1.258,0.244-2.132
					c1.57,2.228,0.106,0.282,1.497-0.622c1.13-0.734,1.923-2.439,1.643-3.029c-0.793-0.213-1.388-0.373-1.939-0.521
					c0-1.362-0.037-1.874-0.026-2.004c-2.47-0.209,1.74-1.896-0.247-3.665c-1.536,1.57-1.007,1.195-2.09,1.142l0.017,0.018
					c-0.268,0.004-0.411-0.036-0.485,0.013c-0.23-1.858,0.08-1.49-1.743-2.009c0.31-0.049,1.064-0.218,2.959-0.599
					c0.213,1.741-0.153,1.607,1.72,0.306l-0.16-0.145c-0.233-0.503-0.465-1.006-0.699-1.509c1.115-0.67,0.745-1.93,1.724-3.064
					l-1.969,0.341c0.062-0.2,0.141-0.438,0.348-1.073c1.649,0.302,0.777-1.14,1.236-1.724c-0.905,0.285-1.324,0.433-1.51,0.505
					c-0.077-0.575-0.14-0.821-0.148-0.91c-1.906-0.029-1.264-2.091-2.52-3.132c2.322-0.157,2.861-0.107,0.298-1.204
					c0.819-0.584,1.726-1.084,2.403-1.803c1.486-1.578-0.628-1.238-0.478-1.449c-0.864,0.839-0.508,0.603-0.551,0.111
					c-0.731-0.073-0.613,0.024-0.644-0.417c2.648-0.762,2.103-0.089,2.103-3.185c-0.016-0.016-0.019-0.021-0.034-0.036
					c0.017,0.013,0.021,0.017,0.039,0.031c1.534-1.711,1.329-1.723,1.528-1.58c-1.744-1.179,0.843-2.363,0.42-2.725
					C224.18,83.61,225.805,83.408,222.66,81.478z M40.561,115.919c0.637,0.371,0.681,0.224-0.277,0.835
					C40.367,116.512,40.46,116.236,40.561,115.919z M40.231,116.906c0.297,0.457,0.593,0.915,0.892,1.375
					C39.676,118.434,39.711,118.409,40.231,116.906z M39.688,134.578c1.148-1.891,0.591-1.637,2.796-0.914
					C41.851,134.792,42.645,134.357,39.688,134.578z M39.311,136.671c0.14-0.119,0.593-0.54,1.677-1.407
					c0.078,0.376,0.302,0.756,0.177,0.965C40.62,137.145,39.955,137.037,39.311,136.671z M40.867,145.377
					c0.426-0.019,0.603,0.006,0.739-0.055C40.93,145.819,41.08,145.822,40.867,145.377z M41.697,145.266
					c0.142-0.123,0.287-0.397,0.721-1.031C42.871,144.719,43.002,144.506,41.697,145.266z M41.773,127.539
					c0.593-1.384,0.567-1.353,1.451-0.646c0.285,0.228,1.052-0.16,0.905,0.655c0.108,0.037,0.175,0.065,0.238,0.092
					C43.978,127.665,43.23,127.663,41.773,127.539z M45.553,151.219c-0.126-0.207-0.205-0.118,0.423-0.393
					c-1.282-1.52-1.182-1.189-0.797-1.591C47.694,150.439,46.334,150.393,45.553,151.219z M71.501,142.938
					c0.613-0.554,0.366-0.579,0.998-0.2C72.006,143.347,72.266,143.294,71.501,142.938z M87.523,143.967
					c-0.803-0.952-0.679-0.786-0.114-1.208c0.16,0.316,0.325,0.629,0.462,0.958C87.878,143.733,87.534,143.98,87.523,143.967z
					 M103.285,139.936c-0.42-0.076-1.06,0.18-2.159,1.843c-0.237-1.074,0.254-1.128,0.805-1.125
					C103.523,138.997,103.262,138.525,103.285,139.936z M103.35,139.953c0.306-0.061,0.613-0.122,0.92-0.183
					C103.996,140.568,103.811,140.08,103.35,139.953z M104.859,141.532c1.433-0.733,1.153-0.712,1.333-0.219
					C104.789,142.047,105.054,142.064,104.859,141.532z M104.358,139.713c0.706-1.095,1.465-1.605,2.619-0.301
					C105.921,139.533,105.136,139.624,104.358,139.713z M119.074,138.618c-0.417-0.137-0.766,0.146-0.804-0.462
					C120.019,137.392,119.885,137.18,119.074,138.618z M119.294,131.352c0.117-0.086,0.263-0.174,0.622-0.403
					C120.146,131.508,119.724,131.328,119.294,131.352z M122.958,136.603c0.083,0.359,0.165,0.718,0.252,1.095
					C122.335,137.577,122.448,137.154,122.958,136.603z M129.491,137.685c-0.518-1.307-0.587-1.591-0.765-1.762
					C129.492,136.245,129.911,136.055,129.491,137.685z M149.422,119.291c0.202-0.234,0.613,0.592-0.216,0.409
					C149.274,119.56,149.324,119.405,149.422,119.291z M134.656,124.37c-0.725-1.121-0.762-0.824-0.038-1.329
					C135.233,124.279,135.253,123.996,134.656,124.37z M134.764,122.444c-0.211-0.323-0.323-0.195,0.594-0.557l0.002,0
					C135.202,121.998,135.01,122.175,134.764,122.444z M139.295,128.249c-0.428-0.216-0.479-0.083,0.312-0.792
					C139.546,127.585,139.473,127.792,139.295,128.249z M139.878,129.649c0.14-0.925,0.005-0.77,0.548-0.773
					C140.095,129.816,140.232,129.68,139.878,129.649z M141.154,120.614c0.779-0.324,0.552-0.328,0.816,0.087
					C141.124,120.957,141.356,120.953,141.154,120.614z M149.015,121.559c0.606-0.613,0.425-0.572,0.753-0.074
					C149.124,121.952,149.319,121.917,149.015,121.559z M150.722,122.23c0.637-1.187,0.459-0.994,0.893-0.835
					C150.963,122.606,151.164,122.447,150.722,122.23z M157.851,113.818c1.083,1.223,1.057,0.905,0.496,1.43
					C157.225,114.015,157.3,114.327,157.851,113.818z M158.564,131.628c0.211-0.474,0.525-0.187,0.695-0.005
					C159.027,131.625,158.795,131.627,158.564,131.628z M160.119,112.306c0.212,0.855,0.312,1.258,0.474,1.907
					C159.078,113.844,159.128,114.32,160.119,112.306z M178.844,125.162c0.393,0.323,0.439,0.163-0.313,0.717
					c-0.052,0.079-0.056,0.087-0.081,0.128C178.549,125.839,178.723,125.516,178.844,125.162z M170.654,118.126
					c0.411,1.277,0.418,1.052,0.118,1.304C170.166,118.843,170.263,119.153,170.654,118.126z M167.266,109.706
					c-0.338,0.561-0.472,0.187-0.63-0.058c0.203-0.106,0.389-0.204,0.576-0.301C167.234,109.468,167.317,109.621,167.266,109.706z
					 M167.943,130.02c-0.425-0.754-0.005-0.878,0.98-0.772C168.486,129.592,168.212,129.808,167.943,130.02z M168.107,127.073
					c0.398-0.087,0.22-0.143,0.845,0.131C168.183,127.629,168.4,127.589,168.107,127.073z M170.226,123.921
					c-1.399-0.465-1.242-0.271-1.014-0.768C170.658,123.563,170.466,123.385,170.226,123.921z M171.084,128.331
					c-0.258-0.272-0.361-0.426-0.424-0.521C171.359,127.902,171.289,127.835,171.084,128.331z M178.449,128.696
					c0.537-0.596,0.994-1.005,1.655-0.138C179.392,128.617,178.956,128.654,178.449,128.696z M182.186,126.883
					c-0.496-0.082-0.527,0.106,0.077-0.947C182.247,126.104,182.229,126.382,182.186,126.883z M217.817,73.589
					c-0.004,0.532-0.41,0.394-0.803,0.287C217.18,73.824,217.434,73.718,217.817,73.589z M217.957,76.514
					c-1.135-1.791-1.118-1.391-0.491-1.906C218.464,76.474,218.447,76.152,217.957,76.514z M214.477,74.278l1.86-0.322
					C215.78,74.702,215.143,74.674,214.477,74.278z M216.499,73.838c0.058-0.535-0.613-1.259,0.787-1.578
					c-0.317,0.954-0.514,1.397-0.504,1.563C216.674,73.804,216.58,73.809,216.499,73.838z M219,115.984
					c0.757-0.632,0.45-0.68,1.197-0.127C219.712,116.45,220.029,116.45,219,115.984z M221.094,113.642
					c-2.152-0.524-1.81-0.412-2.216-0.668c0.536,0.118,0.265,0.234,1.226-0.61C220.701,113.137,220.94,113.454,221.094,113.642z
					 M219.359,111.602c0.125-0.472,0.251-0.943,0.376-1.415C220.087,110.751,220.654,111.239,219.359,111.602z M219.694,108.859
					c-0.019,0.188,0.013,0.556,0.034,1.306C218.464,110.316,218.365,111.016,219.694,108.859z M219.234,118.397
					c0.504,0.34,0.463,0.236,0.266,0.451c-0.512-1.294-1.273,1.034-2.576,0.387c0.303-0.35,0.938-1.14,1.34-1.594
					c-0.994-0.773-0.955-0.89-0.405-1.436C218.356,116.403,219.51,117.033,219.234,118.397z M216.845,89.901
					c1.777-1.087,1.513-1.13,1.365-0.06C218.322,90.019,218.564,89.832,216.845,89.901z M219.169,77.196
					c-1.103,0.043-0.94,0.118-0.915-0.21C219.43,76.783,219.249,76.719,219.169,77.196z"/>
				<path style="fill:#F05200;" d="M221.791,94.386c1.523-0.645,1.523-0.645,1.984,0.797c0.038,0.118,0.076,0.335,0.13,0.33
					c2.178-0.179,1.07,1.479,1.159,2.491c-3.531-3.184-2.941-2.446-2.937-3.131C222.328,95.027,221.944,94.598,221.791,94.386z"/>
				<path style="fill:#F05200;" d="M223.616,90.345c0.191-0.641,0.381-1.281,0.718-2.412c0.346,0.778,0.758,1.278,0.627,1.482
					c-1.535,2.403,0.447,6.057-1.799,2.044C221.87,92.415,224.121,89.771,223.616,90.345z"/>
				<path style="fill:#F05200;" d="M38.887,144.747c-0.678,0.282-1.356,0.564-2.035,0.846c0.149,0.17,0.132-1.487,1.004-1.82
					C38.816,143.407,38.887,145.301,38.887,144.747z"/>
				<path style="fill:#F05200;" d="M224.604,118.989c0-0.611,0-1.221,0-1.803c0.928-0.353,1.293-0.092,0.97,0.667
					C225.306,118.483,224.395,118.84,224.604,118.989z"/>
				<path style="fill:#F05200;" d="M222.532,106.249c1.427-1.901,0.847-1.743,2.641-0.453
					C222.316,106.484,222.745,106.442,222.532,106.249z"/>
				<path style="fill:#F05200;" d="M38.147,142.365c-1.208,0.549-1.352,0.001-1.364-0.807
					C37.906,141.004,37.716,141.963,38.147,142.365z"/>
				<path style="fill:#F05200;" d="M224.472,77.301c0.158-0.469,0.317-0.938,0.475-1.408c0.188,0.047,0.547,0.099,0.538,0.141
					C225.174,77.653,225.152,77.375,224.472,77.301z"/>
				<path style="fill:#F05200;" d="M224.907,100.999c-0.76-1.432-0.731-1.118-0.257-1.486
					C224.963,99.899,225.661,100.611,224.907,100.999z"/>
				<path style="fill:#F05200;" d="M227.962,110.115c-0.165,0.669-0.261,1.055-0.401,1.62
					C227.165,110.999,227.165,110.999,227.962,110.115z"/>
				<path style="fill:#F05200;" d="M227.417,83.957c0.488-1.158,0.319-0.992,0.742-0.854
					C227.62,84.219,227.795,84.071,227.417,83.957z"/>
				<path style="fill:#F05200;" d="M37.34,140.298c0.715-0.95,0.526-0.836,0.847-0.668C37.591,140.699,37.781,140.579,37.34,140.298
					z"/>
				<path style="fill:#F05200;" d="M221.63,96.792c-0.564,1.097-0.394,0.906-0.822,0.795
					C221.452,96.487,221.271,96.64,221.63,96.792z"/>
				<path style="fill:#F05200;" d="M224.905,84.458c-0.084-0.371-0.168-0.742-0.253-1.113l-0.065,0.068
					C225.929,83.546,224.653,84.502,224.905,84.458z"/>
				<path style="fill:#F05200;" d="M39.775,140.823c-0.755-0.038-0.803,0.095,0.011-0.407c-0.197-0.13-0.093-0.113-0.094,0.494
					L39.775,140.823z"/>
				<path style="fill:#F05200;" d="M221.181,91.277l0.036-0.051c-0.184,0.029-0.368,0.057-0.551,0.086
					C220.865,91.482,220.692,90.569,221.181,91.277z"/>
				<path style="fill:#F05200;" d="M39.692,128.454c0.003-0.672-0.18-0.515,0.909-0.629
					C40.298,128.035,39.995,128.245,39.692,128.454z"/>
			</g>
			<g>
				<path style="fill:#FFE1A0;" d="M92.713,204.919c-2.582-2.472-3.964-6.873-4.146-13.204l10.486-3.454
					c0.045,3.648,0.468,6.198,1.268,7.65c0.799,1.453,1.998,2.04,3.598,1.762c2.057-0.356,3.084-1.934,3.084-4.736
					c0-2.23-0.491-4.068-1.473-5.513c-0.983-1.443-2.525-2.909-4.626-4.397l-4.797-3.513c-2.376-1.677-4.215-3.578-5.517-5.702
					c-1.302-2.125-1.954-4.8-1.954-8.029c0-4.842,1.382-8.808,4.146-11.898c2.764-3.089,6.568-5.054,11.411-5.893
					c5.254-0.91,8.829,0.062,10.726,2.914c1.895,2.852,2.913,6.545,3.05,11.079l-10.554,3.181c-0.092-2.975-0.354-5.078-0.788-6.309
					c-0.435-1.23-1.382-1.719-2.845-1.465c-1.051,0.182-1.862,0.786-2.433,1.81c-0.572,1.025-0.856,2.107-0.856,3.247
					c0,1.947,0.422,3.512,1.268,4.693c0.845,1.184,2.204,2.467,4.078,3.852l4.592,3.406c2.741,1.946,4.866,4.142,6.373,6.586
					c1.508,2.445,2.262,5.519,2.262,9.222c0,2.706-0.606,5.268-1.816,7.685c-1.211,2.417-2.913,4.457-5.106,6.118
					c-2.193,1.662-4.729,2.742-7.607,3.24C99.234,208.169,95.293,207.391,92.713,204.919z"/>
				<path style="fill:#FFE1A0;" d="M132.291,143.909l13.981-2.421l10.348,55.889l-11.308,1.958l-1.85-11.857l-8.156,1.413
					l-1.919,12.509l-11.583,2.006L132.291,143.909z M142.298,180.06l-2.947-21.993l-2.947,23.014L142.298,180.06z"/>
				<path style="fill:#FFE1A0;" d="M162.241,138.722l12.268-2.124v49.064l12.747-2.208v8.617l-25.015,4.332V138.722z"/>
				<path style="fill:#FFE1A0;" d="M192.602,133.464l24.946-4.321v8.688l-12.679,2.196v14.313l9.664-1.673v8.83l-9.664,1.673v17.233
					l12.816-2.219v8.616l-25.083,4.345V133.464z"/>
			</g>
			<g>
				<path style="fill:#002D3F;" d="M50.678,113.883l5.743-0.995c1.434-0.248,2.654-0.304,3.661-0.167
					c1.007,0.137,1.819,0.595,2.437,1.374c0.617,0.779,0.925,1.97,0.925,3.573c0,1.357-0.281,2.462-0.844,3.314
					c-0.563,0.852-1.361,1.471-2.396,1.857c1.27-0.05,2.241,0.338,2.913,1.164c0.671,0.827,1.007,2.051,1.007,3.672
					c0,4.525-2.224,7.173-6.669,7.943l-6.778,1.174V113.883z M56.503,122.037c1.034-0.179,1.738-0.545,2.11-1.101
					c0.372-0.554,0.558-1.35,0.558-2.388c0-0.905-0.236-1.547-0.708-1.928c-0.472-0.38-1.161-0.492-2.069-0.335l-0.844,0.146v5.77
					L56.503,122.037z M56.584,132.233c1.035-0.179,1.765-0.574,2.192-1.185c0.426-0.611,0.639-1.492,0.639-2.643
					c0-1.301-0.213-2.178-0.639-2.633c-0.427-0.454-1.167-0.589-2.219-0.407l-1.007,0.174v6.873L56.584,132.233z"/>
				<path style="fill:#002D3F;" d="M66.684,111.11l4.872-0.844v19.487l5.063-0.877v3.422l-9.936,1.721V111.11z"/>
				<path style="fill:#002D3F;" d="M81.845,108.484l5.553-0.961l4.11,22.198l-4.492,0.778l-0.735-4.709l-3.239,0.561l-0.762,4.968
					l-4.601,0.797L81.845,108.484z M85.819,122.843l-1.17-8.735l-1.171,9.14L85.819,122.843z"/>
				<path style="fill:#002D3F;" d="M94.598,127.559c-1.007-1.136-1.51-2.938-1.51-5.409v-8.259c0-2.526,0.498-4.522,1.497-5.987
					c0.998-1.464,2.704-2.405,5.118-2.823c2.304-0.399,3.938-0.107,4.899,0.876c0.962,0.984,1.443,2.532,1.443,4.643v1.98
					l-4.764,0.825v-2.291c0-0.886-0.091-1.549-0.272-1.99c-0.182-0.439-0.617-0.6-1.307-0.48c-0.69,0.119-1.143,0.448-1.361,0.985
					c-0.218,0.538-0.327,1.249-0.327,2.136v10.776c0,0.905,0.113,1.579,0.34,2.021c0.226,0.441,0.676,0.604,1.348,0.487
					c0.671-0.116,1.102-0.431,1.292-0.945c0.191-0.514,0.286-1.223,0.286-2.128v-2.404l4.764-0.825v1.98
					c0,2.149-0.481,3.907-1.443,5.271c-0.962,1.364-2.595,2.245-4.899,2.644C97.307,129.056,95.606,128.696,94.598,127.559z"/>
				<path style="fill:#002D3F;" d="M108.712,103.831l4.872-0.844v9.362l3.702-10.003l4.763-0.825l-4.083,11.059l4.274,11.818
					l-4.954,0.858l-3.185-9.574l-0.517,0.995v9.221l-4.872,0.844V103.831z"/>
				<path style="fill:#002D3F;" d="M131.115,99.952l9.527-1.65v3.422l-4.655,0.807v5.77l4.056-0.703v3.536l-4.056,0.702v10.183
					l-4.873,0.844V99.952z"/>
				<path style="fill:#002D3F;" d="M142.928,97.905l6.07-1.051c2.413-0.418,4.237-0.29,5.471,0.381
					c1.233,0.673,1.851,2.14,1.851,4.403c0,1.527-0.191,2.776-0.572,3.748c-0.381,0.971-1.089,1.801-2.123,2.489l3.021,10.564
					l-5.036,0.872l-2.422-9.848l-1.389,0.24v10.268l-4.872,0.844V97.905z M149.162,106.556c0.98-0.17,1.665-0.557,2.055-1.162
					c0.39-0.605,0.585-1.445,0.585-2.52c0-1.037-0.181-1.783-0.544-2.239c-0.363-0.456-0.99-0.606-1.878-0.453l-1.579,0.274v6.335
					L149.162,106.556z"/>
				<path style="fill:#002D3F;" d="M159.287,95.072l4.873-0.844v22.91l-4.873,0.844V95.072z"/>
				<path style="fill:#002D3F;" d="M167.454,93.658l5.58-0.967c1.906-0.33,3.394-0.343,4.464-0.038
					c1.07,0.305,1.828,0.941,2.273,1.912c0.444,0.969,0.666,2.33,0.666,4.084v8.315c0,1.773-0.222,3.226-0.666,4.358
					c-0.445,1.133-1.198,2.045-2.259,2.739c-1.061,0.693-2.536,1.203-4.424,1.53l-5.634,0.976V93.658z M173.088,112.084
					c0.708-0.123,1.23-0.321,1.566-0.596c0.335-0.274,0.548-0.623,0.639-1.044c0.09-0.421,0.136-1.028,0.136-1.82v-9.983
					c0-0.735-0.05-1.288-0.149-1.657c-0.1-0.369-0.318-0.619-0.653-0.749c-0.336-0.13-0.857-0.134-1.565-0.012l-0.735,0.127v15.867
					L173.088,112.084z"/>
				<path style="fill:#002D3F;" d="M186.182,90.414l5.553-0.962l4.11,22.198l-4.492,0.778l-0.735-4.709l-3.239,0.561l-0.762,4.968
					l-4.601,0.797L186.182,90.414z M190.156,104.773l-1.171-8.735l-1.171,9.141L190.156,104.773z"/>
				<path style="fill:#002D3F;" d="M199.765,101.61l-4.192-12.822l4.6-0.797l2.096,6.878l1.878-7.566l4.41-0.764l-4.11,14.26v9.362
					l-4.682,0.811V101.61z"/>
			</g>
		</g>
		<g>
			
				<rect x="199.36" y="66.957" transform="matrix(0.9853 -0.1709 0.1709 0.9853 -8.4428 36.8357)" style="fill:#002D3F;" width="20.749" height="1"/>
		</g>
		<g>
			
				<rect x="214.926" y="59.489" transform="matrix(0.9853 -0.1709 0.1709 0.9853 -6.9476 39.2703)" style="fill:#002D3F;" width="19.396" height="1"/>
		</g>
		<g>
			
				<rect x="48.568" y="226.699" transform="matrix(0.9853 -0.1709 0.1709 0.9853 -37.8346 14.8811)" style="fill:#F05200;" width="37.9" height="1"/>
		</g>
		<g>
			
				<rect x="74.415" y="231.483" transform="matrix(0.9853 -0.1709 0.1709 0.9853 -38.3376 18.5611)" style="fill:#F05200;" width="28.474" height="1"/>
		</g>
		<polygon style="fill:#F05200;" points="248.992,58.401 229.883,77.78 261.587,67.946 		"/>
		<polygon style="fill:#002D3F;" points="39.811,227.736 58.92,208.357 27.217,218.191 		"/>
	</g>
	<g>
		<path style="fill:#002D3F;" d="M104.56,225.674c-0.367-0.482-0.55-1.224-0.55-2.225V220.4c0-1.023,0.199-1.839,0.598-2.447
			c0.399-0.607,1.074-0.993,2.023-1.157c0.913-0.158,1.568-0.039,1.963,0.355c0.396,0.395,0.593,1.014,0.593,1.858v0.583
			l-1.888,0.327v-0.74c0-0.359-0.04-0.623-0.118-0.792c-0.08-0.169-0.255-0.231-0.529-0.183c-0.281,0.049-0.462,0.181-0.544,0.397
			c-0.083,0.216-0.125,0.504-0.125,0.862v4.203c0,0.358,0.052,0.632,0.157,0.819c0.104,0.188,0.293,0.257,0.566,0.21
			c0.503-0.087,0.755-0.523,0.755-1.308v-1.065l-0.788,0.137v-1.177l2.524-0.438v4.707l-1.273,0.221l-0.108-0.732
			c-0.273,0.638-0.745,1.014-1.413,1.13C105.542,226.322,104.927,226.156,104.56,225.674z"/>
		<path style="fill:#002D3F;" d="M112.241,215.949l3.927-0.681v1.368l-1.996,0.346v2.253l1.521-0.264v1.39l-1.521,0.264v2.712
			l2.017-0.349v1.357l-3.948,0.684V215.949z"/>
		<path style="fill:#002D3F;" d="M119.684,216.15l-1.316,0.228v-1.491l4.563-0.79v1.49l-1.306,0.227v7.588l-1.941,0.336V216.15z"/>
		<path style="fill:#002D3F;" d="M131.097,221.565c-0.381-0.154-0.65-0.433-0.804-0.836c-0.155-0.403-0.232-0.937-0.232-1.602
			v-6.266l1.909-0.33v6.568c0,0.366,0.045,0.65,0.135,0.851c0.089,0.202,0.271,0.278,0.544,0.231
			c0.273-0.047,0.453-0.187,0.54-0.419c0.086-0.231,0.129-0.53,0.129-0.896v-6.568l1.92-0.333v6.266
			c0,0.665-0.079,1.226-0.237,1.683c-0.159,0.457-0.426,0.829-0.804,1.114c-0.377,0.286-0.894,0.485-1.548,0.599
			C131.996,221.74,131.478,221.72,131.097,221.565z"/>
		<path style="fill:#002D3F;" d="M138.303,211.434l2.935-0.508c0.769-0.133,1.345-0.007,1.726,0.379
			c0.381,0.386,0.571,1.005,0.571,1.857c0,0.972-0.221,1.684-0.663,2.138c-0.442,0.454-1.063,0.75-1.861,0.888l-0.776,0.134v3.856
			l-1.931,0.335V211.434z M140.881,214.811c0.338-0.059,0.563-0.191,0.674-0.397c0.111-0.206,0.167-0.53,0.167-0.971
			c0-0.404-0.054-0.693-0.162-0.869c-0.108-0.175-0.338-0.232-0.69-0.172l-0.637,0.11v2.41L140.881,214.811z"/>
		<path style="fill:#002D3F;" d="M147.084,211.405l-1.316,0.228v-1.491l4.563-0.79v1.491l-1.305,0.226v7.588l-1.942,0.336V211.405z"
			/>
		<path style="fill:#002D3F;" d="M153.33,217.289c-0.403-0.435-0.604-1.146-0.604-2.132v-3.374c0-0.986,0.201-1.763,0.604-2.33
			c0.403-0.567,1.075-0.932,2.017-1.095c0.949-0.164,1.627-0.031,2.034,0.399c0.406,0.43,0.609,1.135,0.609,2.114v3.374
			c0,0.986-0.203,1.767-0.609,2.342c-0.406,0.575-1.084,0.944-2.034,1.108C154.405,217.859,153.733,217.724,153.33,217.289z
			 M155.887,215.893c0.086-0.206,0.129-0.473,0.129-0.802v-4.371c0-0.336-0.043-0.59-0.129-0.762
			c-0.086-0.172-0.266-0.234-0.539-0.187c-0.259,0.044-0.432,0.17-0.518,0.375c-0.086,0.206-0.129,0.473-0.129,0.802v4.371
			c0,0.329,0.04,0.582,0.118,0.759c0.08,0.177,0.256,0.241,0.529,0.194C155.621,216.225,155.801,216.099,155.887,215.893z"/>
		<path style="fill:#002D3F;" d="M166.275,215.495c-0.331-0.17-0.558-0.447-0.68-0.83c-0.122-0.382-0.184-0.883-0.184-1.503
			l1.737-0.301c0,0.53,0.041,0.895,0.124,1.094c0.083,0.198,0.246,0.276,0.491,0.234c0.194-0.034,0.336-0.128,0.426-0.282
			c0.089-0.154,0.145-0.357,0.167-0.612c0.021-0.254,0.033-0.624,0.033-1.109c0-0.508-0.047-0.887-0.141-1.136
			c-0.093-0.249-0.273-0.35-0.54-0.304c-0.366,0.064-0.597,0.379-0.69,0.949l-1.553,0.269l0.162-5.262l4.078-0.706v1.569
			l-2.632,0.456l-0.097,1.889c0.079-0.133,0.246-0.265,0.501-0.395c0.255-0.13,0.516-0.218,0.782-0.264
			c0.59-0.102,1.041,0.074,1.354,0.527c0.313,0.454,0.47,1.145,0.47,2.071c0,0.725-0.061,1.335-0.183,1.831
			c-0.123,0.496-0.356,0.91-0.702,1.242c-0.345,0.333-0.845,0.555-1.499,0.669C167.081,215.698,166.605,215.666,166.275,215.495z"/>
		<path style="fill:#002D3F;" d="M173.47,213.885c-0.41-0.4-0.615-0.996-0.615-1.788v-4.113c0-0.83,0.199-1.516,0.598-2.06
			c0.399-0.544,0.994-0.883,1.786-1.021c0.791-0.137,1.384-0.002,1.78,0.403c0.395,0.406,0.593,1.024,0.593,1.854v4.114
			c0,0.785-0.206,1.45-0.62,1.996c-0.414,0.546-0.998,0.884-1.753,1.015C174.469,214.418,173.88,214.285,173.47,213.885z
			 M175.676,212.247c0.068-0.206,0.102-0.439,0.102-0.701v-4.024c0-0.299-0.031-0.542-0.092-0.73
			c-0.061-0.187-0.21-0.26-0.447-0.219c-0.237,0.041-0.387,0.164-0.448,0.369c-0.061,0.205-0.092,0.46-0.092,0.767v4.024
			c0,0.65,0.18,0.944,0.54,0.882C175.462,212.576,175.608,212.454,175.676,212.247z"/>
		<path style="fill:#002D3F;" d="M181,208.613c-0.316-0.333-0.475-0.915-0.475-1.745v-0.403c0-0.837,0.152-1.465,0.458-1.884
			c0.305-0.419,0.832-0.693,1.581-0.823c0.748-0.129,1.276-0.04,1.585,0.269c0.309,0.31,0.464,0.878,0.464,1.708v0.448
			c0,0.822-0.158,1.453-0.475,1.892c-0.317,0.441-0.842,0.724-1.575,0.851C181.838,209.051,181.316,208.947,181,208.613z
			 M182.963,207.544c0.087-0.112,0.141-0.258,0.162-0.437c0.021-0.18,0.032-0.434,0.032-0.763v-0.28
			c0-0.336-0.011-0.583-0.032-0.739c-0.022-0.157-0.074-0.27-0.156-0.337c-0.083-0.067-0.218-0.086-0.404-0.053
			c-0.188,0.032-0.322,0.097-0.405,0.193c-0.083,0.097-0.135,0.227-0.156,0.392c-0.022,0.165-0.033,0.411-0.033,0.74v0.302
			c0,0.479,0.036,0.809,0.108,0.99c0.072,0.182,0.233,0.251,0.486,0.208C182.744,207.728,182.877,207.657,182.963,207.544z
			 M186.307,203.12l0.971-0.168l-2.676,9.542l-0.981,0.17L186.307,203.12z M186.788,211.545c-0.313-0.334-0.47-0.917-0.47-1.746
			v-0.404c0-0.837,0.153-1.465,0.459-1.884c0.306-0.419,0.829-0.693,1.57-0.821c0.747-0.129,1.276-0.04,1.586,0.269
			c0.309,0.309,0.464,0.878,0.464,1.708v0.437c0,0.822-0.158,1.455-0.475,1.898c-0.316,0.444-0.841,0.729-1.575,0.856
			C187.62,211.984,187.1,211.879,186.788,211.545z M188.745,210.477c0.086-0.112,0.141-0.258,0.162-0.437s0.032-0.429,0.032-0.75
			v-0.303c0-0.337-0.011-0.581-0.032-0.734c-0.021-0.153-0.074-0.264-0.156-0.332c-0.083-0.067-0.218-0.085-0.405-0.053
			s-0.322,0.097-0.404,0.193c-0.083,0.097-0.135,0.227-0.157,0.391c-0.021,0.164-0.032,0.411-0.032,0.74v0.303
			c0,0.478,0.036,0.809,0.108,0.99c0.072,0.182,0.233,0.251,0.485,0.208C188.526,210.661,188.659,210.589,188.745,210.477z"/>
		<path style="fill:#002D3F;" d="M198.454,209.474c-0.403-0.434-0.604-1.145-0.604-2.132v-3.373c0-0.986,0.201-1.763,0.604-2.33
			s1.075-0.932,2.018-1.095c0.949-0.165,1.627-0.031,2.034,0.399c0.406,0.43,0.609,1.135,0.609,2.114v3.374
			c0,0.986-0.203,1.767-0.609,2.342c-0.407,0.575-1.085,0.944-2.034,1.108C199.529,210.044,198.856,209.909,198.454,209.474z
			 M201.01,208.079c0.087-0.206,0.129-0.473,0.129-0.802v-4.371c0-0.336-0.043-0.591-0.129-0.762
			c-0.086-0.172-0.266-0.234-0.539-0.187c-0.259,0.045-0.432,0.17-0.518,0.376c-0.086,0.206-0.129,0.473-0.129,0.802v4.371
			c0,0.329,0.04,0.582,0.119,0.759c0.079,0.177,0.255,0.241,0.529,0.194C200.744,208.41,200.924,208.284,201.01,208.079z"/>
		<path style="fill:#002D3F;" d="M206.123,199.688l3.776-0.654v1.356l-1.845,0.319v2.287l1.607-0.278v1.401l-1.607,0.278v4.035
			l-1.931,0.335V199.688z"/>
		<path style="fill:#002D3F;" d="M212.639,198.56l3.775-0.654v1.356l-1.844,0.319v2.287l1.607-0.278v1.401l-1.607,0.278v4.035
			l-1.931,0.335V198.56z"/>
	</g>
	<g>
		<path style="fill:#002D3F;" d="M65.803,82.649l1.931-0.335v7.723l2.006-0.347v1.356l-3.937,0.682V82.649z"/>
		<path style="fill:#002D3F;" d="M72.426,81.502l1.931-0.334v9.079l-1.931,0.334V81.502z"/>
		<path style="fill:#002D3F;" d="M77.615,80.603l2.071-0.359l0.96,5.113l1.036-5.458l1.996-0.346l0.151,9.053l-1.37,0.237
			l-0.162-6.014l-1.014,6.217l-1.219,0.211l-1.079-5.899l-0.13,6.109l-1.392,0.241L77.615,80.603z"/>
		<path style="fill:#002D3F;" d="M86.935,78.989l1.931-0.334v9.079l-1.931,0.334V78.989z"/>
		<path style="fill:#002D3F;" d="M92.793,79.465l-1.316,0.228v-1.491l4.563-0.791v1.491l-1.306,0.226v7.589l-1.941,0.336V79.465z"/>
		<path style="fill:#002D3F;" d="M98.639,76.962l3.927-0.68v1.367l-1.996,0.346v2.253l1.521-0.263v1.39l-1.521,0.263v2.713
			l2.018-0.35v1.356l-3.949,0.684V76.962z"/>
		<path style="fill:#002D3F;" d="M105.295,75.81l2.212-0.383c0.755-0.13,1.345-0.136,1.769-0.015
			c0.424,0.121,0.725,0.373,0.901,0.757c0.176,0.384,0.264,0.924,0.264,1.619v3.295c0,0.702-0.088,1.278-0.264,1.727
			c-0.176,0.449-0.475,0.811-0.896,1.085c-0.42,0.274-1.005,0.477-1.753,0.606l-2.233,0.387V75.81z M107.528,83.112
			c0.281-0.049,0.487-0.127,0.62-0.236c0.133-0.109,0.218-0.248,0.254-0.414c0.036-0.167,0.054-0.407,0.054-0.722v-3.956
			c0-0.292-0.02-0.511-0.059-0.657c-0.04-0.146-0.126-0.245-0.259-0.297c-0.133-0.052-0.34-0.053-0.62-0.005l-0.291,0.051v6.289
			L107.528,83.112z"/>
		<path style="fill:#002D3F;" d="M118.834,74.955l-1.316,0.228v-1.491l4.563-0.79v1.491l-1.306,0.226v7.588l-1.941,0.337V74.955z"/>
		<path style="fill:#002D3F;" d="M124.691,72.45l1.931-0.335v9.079l-1.931,0.334V72.45z"/>
		<path style="fill:#002D3F;" d="M129.88,71.552l2.071-0.359l0.959,5.113l1.036-5.459l1.996-0.346l0.151,9.053l-1.37,0.237
			l-0.162-6.014l-1.014,6.217l-1.219,0.211l-1.079-5.9l-0.13,6.109l-1.391,0.241L129.88,71.552z"/>
		<path style="fill:#002D3F;" d="M139.189,69.939l3.927-0.681v1.368l-1.996,0.346v2.253l1.521-0.264v1.39l-1.521,0.264v2.712
			l2.018-0.349v1.356l-3.949,0.684V69.939z"/>
		<path style="fill:#002D3F;" d="M150.926,76.363c-0.402-0.435-0.604-1.145-0.604-2.131v-3.374c0-0.986,0.201-1.763,0.604-2.33
			c0.403-0.566,1.075-0.932,2.018-1.095c0.949-0.165,1.627-0.031,2.034,0.399c0.406,0.43,0.609,1.135,0.609,2.113v3.374
			c0,0.986-0.203,1.767-0.609,2.342c-0.407,0.575-1.084,0.944-2.034,1.108C152.001,76.934,151.329,76.798,150.926,76.363z
			 M153.482,74.968c0.087-0.206,0.129-0.473,0.129-0.802v-4.371c0-0.336-0.043-0.591-0.129-0.762
			c-0.086-0.172-0.266-0.234-0.539-0.187c-0.259,0.045-0.432,0.17-0.518,0.376c-0.087,0.205-0.13,0.473-0.13,0.802v4.371
			c0,0.329,0.039,0.581,0.119,0.759c0.079,0.176,0.255,0.241,0.529,0.194C153.216,75.3,153.396,75.173,153.482,74.968z"/>
		<path style="fill:#002D3F;" d="M158.596,66.578l1.359-0.235l1.79,4.062v-4.372l1.597-0.277v9.079l-1.306,0.226l-1.79-4.397v4.707
			l-1.651,0.286V66.578z"/>
		<path style="fill:#002D3F;" d="M166.481,65.212l1.931-0.334v7.723l2.006-0.348v1.356l-3.938,0.682V65.212z"/>
		<path style="fill:#002D3F;" d="M173.439,69.376l-1.662-5.082l1.824-0.315l0.831,2.726l0.744-2.999l1.748-0.303l-1.629,5.651v3.71
			l-1.855,0.321V69.376z"/>
	</g>
</g>
</svg>
