<?xml version="1.0" encoding="utf-8"?>
<!-- Generator: Adobe Illustrator 27.5.0, SVG Export Plug-In . SVG Version: 6.00 Build 0)  -->
<svg version="1.1" xmlns="http://www.w3.org/2000/svg" xmlns:xlink="http://www.w3.org/1999/xlink" x="0px" y="0px"
	 viewBox="0 0 500 500" style="enable-background:new 0 0 500 500;" xml:space="preserve">
<g id="BACKGROUND">
</g>
<g id="OBJECTS">
	<g>
		
			<radialGradient id="SVGID_1_" cx="285.1134" cy="409.4393" r="105.0263" gradientTransform="matrix(1 0 0 0.1458 0 345.5676)" gradientUnits="userSpaceOnUse">
			<stop  offset="0" style="stop-color:#5E5E5E"/>
			<stop  offset="0.1067" style="stop-color:#797979"/>
			<stop  offset="0.319" style="stop-color:#A9A9A9"/>
			<stop  offset="0.521" style="stop-color:#CECECE"/>
			<stop  offset="0.7075" style="stop-color:#E9E9E9"/>
			<stop  offset="0.8729" style="stop-color:#F9F9F9"/>
			<stop  offset="1" style="stop-color:#FFFFFF"/>
		</radialGradient>
		<ellipse style="opacity:0.6;fill:url(#SVGID_1_);" cx="285.113" cy="405.28" rx="146.601" ry="17.397"/>
		<polygon style="fill:#F79829;" points="346.478,315.701 284.067,375.28 310.401,291.947 		"/>
		<polygon style="opacity:0.5;fill:#F79829;" points="346.478,315.701 298.454,329.753 304.164,311.682 		"/>
		<polygon style="fill:#F34D33;" points="346.478,315.701 174.537,299.37 163.253,230.667 363.237,230.667 		"/>
		<polygon style="fill:#F79829;" points="397.877,253.856 94.904,253.856 69.904,101.644 427.877,101.644 		"/>
		<polygon style="fill:#C43D2C;" points="397.877,253.856 174.537,299.37 167.289,255.24 		"/>
		<polygon style="opacity:0.6;fill:#C43D2C;" points="397.877,253.856 174.537,299.37 167.289,255.24 		"/>
		<g>
			<polygon style="fill:#349199;" points="53.305,153.789 319.971,153.789 331.029,115.789 53.305,115.789 			"/>
			<polygon style="fill:#32586F;" points="53.305,153.789 82.413,177.656 78.468,153.789 			"/>
			<polygon style="opacity:0.3;fill:#606060;" points="319.971,153.789 65.495,163.784 53.305,153.789 			"/>
		</g>
		<polygon style="fill:#349199;" points="363.237,265.722 397.877,262.055 389.362,278.722 		"/>
		<polygon style="fill:#F34D33;" points="147.028,101.644 141.695,73.055 380.557,87.35 376.362,101.644 		"/>
		<g>
			<g style="opacity:0.5;">
				
					<text transform="matrix(1 0 0 1 91.2653 233.6671)" style="fill:#474D51; font-family:'OstrichSans-Heavy'; font-size:77.0913px;">big sale</text>
			</g>
			<g>
				
					<text transform="matrix(1 0 0 1 91.2653 230.6671)" style="fill:#FFFFFF; font-family:'OstrichSans-Heavy'; font-size:77.0913px;">big sale</text>
			</g>
		</g>
		<g>
			<text transform="matrix(1 0 0 1 80.5225 141.7373)" style="fill:#FFFFFF; font-family:'Roboto-Regular'; font-size:18.385px;">LIMITED OFFER</text>
		</g>
		<g>
			<path style="fill:#FFFFFF;" d="M227.078,134.789c0,1.04-0.843,1.883-1.883,1.883c-1.04,0-1.883-0.843-1.883-1.883
				c0-1.04,0.843-1.883,1.883-1.883C226.235,132.906,227.078,133.749,227.078,134.789z"/>
			<path style="fill:#FFFFFF;" d="M242.528,134.789c0,1.04-0.843,1.883-1.883,1.883s-1.883-0.843-1.883-1.883
				c0-1.04,0.843-1.883,1.883-1.883S242.528,133.749,242.528,134.789z"/>
			<path style="fill:#FFFFFF;" d="M257.979,134.789c0,1.04-0.843,1.883-1.883,1.883s-1.883-0.843-1.883-1.883
				c0-1.04,0.843-1.883,1.883-1.883S257.979,133.749,257.979,134.789z"/>
			<path style="fill:#FFFFFF;" d="M273.429,134.789c0,1.04-0.843,1.883-1.883,1.883c-1.04,0-1.883-0.843-1.883-1.883
				c0-1.04,0.843-1.883,1.883-1.883C272.586,132.906,273.429,133.749,273.429,134.789z"/>
			<path style="fill:#FFFFFF;" d="M288.879,134.789c0,1.04-0.843,1.883-1.883,1.883c-1.04,0-1.883-0.843-1.883-1.883
				c0-1.04,0.843-1.883,1.883-1.883C288.036,132.906,288.879,133.749,288.879,134.789z"/>
			<path style="fill:#FFFFFF;" d="M304.33,134.789c0,1.04-0.843,1.883-1.883,1.883s-1.883-0.843-1.883-1.883
				c0-1.04,0.843-1.883,1.883-1.883S304.33,133.749,304.33,134.789z"/>
		</g>
		<polygon style="fill:#349199;" points="385.933,95.978 403.303,75.458 409.872,80.12 		"/>
		<polygon style="fill:#F79829;" points="394.582,96.036 407.717,92.685 409.053,96.521 		"/>
		<g>
			<polygon style="fill:#349199;" points="135.413,96.388 85.463,72.388 82.413,84.388 			"/>
			<polygon style="fill:#F34D33;" points="131.079,88.722 116.079,66.722 125.413,64.388 			"/>
		</g>
		<polygon style="fill:#F34D33;" points="154.362,261.055 97.362,275.055 111.028,291.947 		"/>
		<polygon style="fill:#349199;" points="154.362,270.722 140.695,297.388 154.362,299.37 		"/>
		<g>
			<polygon style="fill:#32586F;" points="433.003,232.85 323.859,232.85 343.835,130.85 450.531,130.85 			"/>
			<polygon style="fill:#F34D33;" points="422.686,212.398 343.033,212.398 347.413,188.7 428.56,188.7 			"/>
			<g>
				<text transform="matrix(1 0 0 1 371.6562 207.3929)" style="fill:#FFFFFF; font-family:'Roboto-Light'; font-size:17.7081px;">OFF</text>
				<g>
					<g>
						<text transform="matrix(1 0 0 1 349.62 185.3431)" style="fill:#F79829; font-family:'Roboto-Bold'; font-size:43.5551px;">50%</text>
					</g>
				</g>
			</g>
			<g>
				<rect x="406.92" y="200.549" style="fill:#FFFFFF;" width="12.674" height="1.753"/>
				<rect x="351.741" y="200.549" style="fill:#FFFFFF;" width="12.674" height="1.753"/>
			</g>
		</g>
	</g>
</g>
<g id="DESIGNED_BY_FREEPIK">
	<g>
		<g id="XMLID_1_">
			<g id="XMLID_20_">
				<path id="XMLID_28_" style="fill:#222221;" d="M260.104,465.151c-0.432,0.443-0.803,0.931-1.108,1.453l-0.465-0.241
					c-0.067-0.298-0.349-0.503-0.659-0.466c-0.331,0.039-0.568,0.339-0.529,0.67c0.039,0.331,0.339,0.568,0.67,0.529
					c0.066-0.008,0.127-0.026,0.184-0.052l0.451,0.234c-0.251,0.554-0.433,1.139-0.539,1.744l0.747,0.132
					c0.23-1.306,0.85-2.507,1.792-3.473L260.104,465.151z"/>
				<path id="XMLID_27_" style="fill:#222221;" d="M265.592,462.849c-0.171,0-0.341,0.006-0.51,0.017l-0.074-0.626
					c0.188-0.149,0.296-0.389,0.266-0.644c-0.046-0.393-0.402-0.674-0.795-0.628c-0.393,0.046-0.674,0.402-0.628,0.795
					c0.03,0.254,0.189,0.461,0.404,0.564l0.074,0.624c-0.714,0.116-1.403,0.332-2.06,0.646l0.327,0.684
					c0.934-0.447,1.942-0.673,2.995-0.673c0.496,0,0.993,0.053,1.475,0.158l0.161-0.741
					C266.692,462.908,266.142,462.849,265.592,462.849z"/>
				<path id="XMLID_26_" style="fill:#222221;" d="M272.194,465.396c0.331-0.04,0.566-0.341,0.526-0.672
					c-0.04-0.331-0.341-0.566-0.672-0.526c-0.309,0.038-0.535,0.304-0.53,0.609l-0.416,0.363c-0.418-0.43-0.889-0.813-1.408-1.139
					l-0.404,0.641c1.134,0.715,2.021,1.726,2.563,2.925l0.69-0.313c-0.251-0.554-0.567-1.072-0.942-1.545l0.402-0.351
					C272.065,465.401,272.129,465.404,272.194,465.396z"/>
				<path id="XMLID_25_" style="fill:#222221;" d="M265.044,473.057c-0.386,0.023-0.775,0.035-1.157,0.035
					c-0.88,0-1.733-0.061-2.478-0.179c-0.39-0.062-0.846-0.155-1.27-0.292c1.046,1.861,3.069,3.125,5.388,3.125
					c2.855,0,5.262-1.916,5.95-4.504c-0.682,0.449-1.505,0.825-2.459,1.123C267.839,472.733,266.463,472.972,265.044,473.057z"/>
				<path id="XMLID_21_" style="fill:#222221;" d="M265.592,464.365c-3.352,0-6.08,2.666-6.08,5.944
					c0,0.426,0.046,0.849,0.137,1.261c0.673,0.483,2.706,0.89,5.348,0.731c2.879-0.173,5.297-0.957,6.672-2.159
					c-0.006-0.195-0.021-0.39-0.045-0.582C271.244,466.599,268.65,464.365,265.592,464.365z M263.432,470.88
					c-1.02,0-1.85-0.83-1.85-1.85c0-1.02,0.83-1.85,1.85-1.85c1.02,0,1.85,0.83,1.85,1.85
					C265.282,470.05,264.452,470.88,263.432,470.88z M268.17,469.972c-0.75,0-1.36-0.61-1.36-1.36c0-0.75,0.61-1.361,1.36-1.361
					c0.75,0,1.361,0.61,1.361,1.361C269.53,469.362,268.92,469.972,268.17,469.972z"/>
			</g>
			<path id="XMLID_18_" style="fill:#222221;" d="M281.595,466.232c-0.295-0.116-0.805-0.309-1.382-0.237
				c-0.551,0.068-0.844,0.34-0.844,1.007v0.866h2.228v1.717h-2.228v5.455h-1.932v-5.455h-1.34v-1.717h1.34v-0.888
				c0-1.68,0.896-2.783,2.568-2.783c0.643,0,1.157,0.122,1.59,0.308L281.595,466.232z"/>
			<path id="XMLID_16_" style="fill:#222221;" d="M286.298,469.564c-0.177-0.03-0.358-0.046-0.526-0.046
				c-0.896,0-1.51,0.548-1.51,1.613v3.908h-1.932v-7.172h1.873v0.785c0.451-0.674,1.14-0.977,2.021-0.977
				c0.414,0,0.848,0.128,1.094,0.337L286.298,469.564z"/>
			<path id="XMLID_13_" style="fill:#222221;" d="M293.965,471.442c0,0.222-0.015,0.489-0.037,0.651h-5.085
				c0.207,1.036,0.933,1.488,1.843,1.488c0.622,0,1.295-0.252,1.813-0.688l1.133,1.243c-0.814,0.748-1.85,1.088-3.057,1.088
				c-2.198,0-3.723-1.495-3.723-3.753c0-2.257,1.48-3.797,3.627-3.797C292.544,467.675,293.958,469.207,293.965,471.442z
				 M288.851,470.776h3.175c-0.177-0.918-0.733-1.436-1.562-1.436C289.554,469.34,289.021,469.888,288.851,470.776z"/>
			<path id="XMLID_10_" style="fill:#222221;" d="M301.618,471.442c0,0.222-0.015,0.489-0.037,0.651h-5.085
				c0.207,1.036,0.932,1.488,1.843,1.488c0.622,0,1.295-0.252,1.814-0.688l1.132,1.243c-0.814,0.748-1.85,1.088-3.057,1.088
				c-2.198,0-3.723-1.495-3.723-3.753c0-2.257,1.48-3.797,3.627-3.797C300.197,467.675,301.611,469.207,301.618,471.442z
				 M296.504,470.776h3.175c-0.178-0.918-0.733-1.436-1.562-1.436C297.207,469.34,296.674,469.888,296.504,470.776z"/>
			<path id="XMLID_7_" style="fill:#222221;" d="M309.964,471.45c0,2.154-1.495,3.775-3.471,3.775c-0.962,0-1.643-0.378-2.109-0.933
				V478h-1.924v-10.133h1.887v0.792c0.466-0.585,1.155-0.984,2.139-0.984C308.469,467.675,309.964,469.296,309.964,471.45z
				 M304.287,471.45c0,1.132,0.747,1.976,1.843,1.976c1.14,0,1.85-0.881,1.85-1.976c0-1.095-0.71-1.976-1.85-1.976
				C305.035,469.474,304.287,470.317,304.287,471.45z"/>
			<path id="XMLID_4_" style="fill:#222221;" d="M313.068,465.521c0,0.696-0.54,1.229-1.236,1.229c-0.696,0-1.229-0.533-1.229-1.229
				c0-0.696,0.533-1.243,1.229-1.243C312.527,464.278,313.068,464.826,313.068,465.521z M312.809,475.039h-1.932v-7.172h1.932
				V475.039z"/>
			<path id="XMLID_2_" style="fill:#222221;" d="M316.032,470.421l2.701-2.554h2.368l-3.479,3.375l3.501,3.797h-2.376l-2.716-2.901
				v2.901H314.1v-10.658h1.932V470.421z"/>
		</g>
		<g>
			<path style="fill:#222221;" d="M184.412,474.974v-1.055c-0.527,0.718-1.391,1.23-2.388,1.23c-1.846,0-3.149-1.406-3.149-3.706
				c0-2.256,1.289-3.721,3.149-3.721c0.952,0,1.816,0.469,2.388,1.245v-3.765h1.099v9.77H184.412z M184.412,473.056v-3.208
				c-0.395-0.615-1.245-1.143-2.124-1.143c-1.421,0-2.27,1.172-2.27,2.739c0,1.567,0.85,2.724,2.27,2.724
				C183.168,474.169,184.017,473.671,184.412,473.056z"/>
			<path style="fill:#222221;" d="M186.932,471.43c0-2.051,1.465-3.706,3.486-3.706c2.139,0,3.398,1.67,3.398,3.794v0.279h-5.727
				c0.088,1.333,1.025,2.446,2.549,2.446c0.805,0,1.626-0.322,2.182-0.893l0.527,0.718c-0.703,0.703-1.655,1.084-2.812,1.084
				C188.44,475.15,186.932,473.642,186.932,471.43z M190.403,468.632c-1.509,0-2.256,1.274-2.314,2.358h4.643
				C192.718,469.935,192.015,468.632,190.403,468.632z"/>
			<path style="fill:#222221;" d="M194.607,474.037l0.571-0.791c0.469,0.542,1.362,1.011,2.329,1.011c1.084,0,1.67-0.513,1.67-1.216
				c0-1.714-4.38-0.659-4.38-3.281c0-1.098,0.952-2.036,2.636-2.036c1.201,0,2.051,0.454,2.622,1.026l-0.513,0.762
				c-0.424-0.513-1.201-0.894-2.109-0.894c-0.967,0-1.567,0.483-1.567,1.113c0,1.553,4.38,0.527,4.38,3.281
				c0,1.187-0.952,2.139-2.783,2.139C196.306,475.15,195.325,474.799,194.607,474.037z"/>
			<path style="fill:#222221;" d="M201.477,466.156c0-0.41,0.337-0.747,0.732-0.747c0.41,0,0.747,0.337,0.747,0.747
				c0,0.41-0.337,0.732-0.747,0.732C201.814,466.889,201.477,466.567,201.477,466.156z M201.667,474.974V467.9h1.099v7.075H201.667z
				"/>
			<path style="fill:#222221;" d="M204.582,476.791l0.556-0.82c0.586,0.703,1.289,0.967,2.3,0.967c1.172,0,2.27-0.571,2.27-2.124
				v-1.011c-0.513,0.718-1.377,1.26-2.373,1.26c-1.845,0-3.149-1.377-3.149-3.662c0-2.27,1.289-3.677,3.149-3.677
				c0.952,0,1.802,0.469,2.373,1.245V467.9h1.098v6.87c0,2.344-1.641,3.076-3.369,3.076
				C206.237,477.845,205.417,477.611,204.582,476.791z M209.709,472.939v-3.091c-0.381-0.615-1.23-1.143-2.109-1.143
				c-1.421,0-2.27,1.128-2.27,2.695c0,1.553,0.849,2.695,2.27,2.695C208.478,474.096,209.328,473.554,209.709,472.939z"/>
			<path style="fill:#222221;" d="M217.413,474.974v-4.629c0-1.245-0.63-1.641-1.582-1.641c-0.865,0-1.685,0.527-2.095,1.099v5.17
				h-1.099V467.9h1.099v1.025c0.498-0.586,1.465-1.201,2.519-1.201c1.48,0,2.256,0.747,2.256,2.285v4.966H217.413z"/>
			<path style="fill:#222221;" d="M219.932,471.43c0-2.051,1.465-3.706,3.486-3.706c2.139,0,3.398,1.67,3.398,3.794v0.279h-5.727
				c0.088,1.333,1.025,2.446,2.549,2.446c0.806,0,1.626-0.322,2.183-0.893l0.527,0.718c-0.703,0.703-1.655,1.084-2.812,1.084
				C221.441,475.15,219.932,473.642,219.932,471.43z M223.404,468.632c-1.509,0-2.256,1.274-2.314,2.358h4.643
				C225.718,469.935,225.015,468.632,223.404,468.632z"/>
			<path style="fill:#222221;" d="M233.35,474.974v-1.055c-0.527,0.718-1.392,1.23-2.388,1.23c-1.846,0-3.149-1.406-3.149-3.706
				c0-2.256,1.289-3.721,3.149-3.721c0.952,0,1.817,0.469,2.388,1.245v-3.765h1.098v9.77H233.35z M233.35,473.056v-3.208
				c-0.396-0.615-1.245-1.143-2.124-1.143c-1.421,0-2.27,1.172-2.27,2.739c0,1.567,0.849,2.724,2.27,2.724
				C232.105,474.169,232.954,473.671,233.35,473.056z"/>
			<path style="fill:#222221;" d="M239.692,474.974v-9.77h1.098v3.765c0.572-0.776,1.421-1.245,2.388-1.245
				c1.845,0,3.149,1.465,3.149,3.721c0,2.299-1.304,3.706-3.149,3.706c-0.996,0-1.86-0.513-2.388-1.23v1.055H239.692z
				 M242.9,474.169c1.436,0,2.285-1.157,2.285-2.724c0-1.567-0.85-2.739-2.285-2.739c-0.864,0-1.728,0.527-2.109,1.143v3.208
				C241.171,473.671,242.036,474.169,242.9,474.169z"/>
			<path style="fill:#222221;" d="M247.528,476.747c0.161,0.073,0.425,0.117,0.601,0.117c0.483,0,0.805-0.161,1.055-0.747
				l0.469-1.069l-2.959-7.148h1.187l2.358,5.801l2.344-5.801h1.201l-3.545,8.51c-0.425,1.025-1.143,1.421-2.08,1.435
				c-0.234,0-0.601-0.044-0.805-0.103L247.528,476.747z"/>
		</g>
	</g>
</g>
</svg>
